# xmcd
#
# Track frame offsets:
#	150
#	7946
#	23985
#	28831
#	39633
#	57892
#	60885
#	73248
#	88537
#	90370
#	105997
#	111766
#	125185
#	139812
#	145617
#	150435
#	167022
#	177570
#	184313
#	200695
#	206291
#	209677
#	225846
#	229380
#	247725
#
# Disc length: 3785 seconds
#
# Revision: 2
# Processed by: cddbd v1.5.1PL0 Copyright (c) Steve Scherf et al.
# Submitted via: audiograbber 1.81.02
#
DISCID=510ec719
DTITLE=Superzwei - Die Rückkehr der heiligen 2 Könige
DYEAR=2004
DGENRE=Comedy
TTITLE0=Die Heiligen 2 Könige "Die Rückkehr"
TTITLE1=Es ist so geil ein Star zu sein
TTITLE2=Rainer and Harald "Angler"
TTITLE3=Die Heiligen 2 Könige "Das Training"
TTITLE4=Mr. JC
TTITLE5=Erziehungsmaßnahme
TTITLE6=Stubenarrest
TTITLE7=KS 4000
TTITLE8=Damenwahl
TTITLE9=Hauptsach' Gesund
TTITLE10=Rainer and Harald "Viagra"
TTITLE11=Der Megadeal (2)
TTITLE12=Georgie
TTITLE13=Die Heiligen 2 Könige "Im Einsatz"
TTITLE14=Rainer and Harald "Persönliche Frage"
TTITLE15=Frauen
TTITLE16=Die Heiligen 2 Könige "Zahlencode 1"
TTITLE17=Rainer and Harald "Das Wunder"
TTITLE18=Gottes Bodenpersonal
TTITLE19=Die Heiligen 2 Könige "Zahlencode 2"
TTITLE20=Rainer and Harald "Pfarrer Wiesmann"
TTITLE21=Schnäppchenjagd
TTITLE22=Besser spät als nie
TTITLE23=René
TTITLE24=Die Heiligen 2 Könige "Anrufbeantworter"
EXTD=
EXTT0=
EXTT1=
EXTT2=
EXTT3=
EXTT4=
EXTT5=
EXTT6=
EXTT7=
EXTT8=
EXTT9=
EXTT10=
EXTT11=
EXTT12=
EXTT13=
EXTT14=
EXTT15=
EXTT16=
EXTT17=
EXTT18=
EXTT19=
EXTT20=
EXTT21=
EXTT22=
EXTT23=
EXTT24=
PLAYORDER=
